HIERARCHY
ROOT Hips
{
    OFFSET 0.000000 0.000000 0.000000
    CHANNELS 6 Xposition Yposition Zposition Zrotation Xrotation Yrotation
    JOINT Spine
    {
        OFFSET -0.000000 14.517291 0.000000
        CHANNELS 3 Zrotation Xrotation Yrotation
        JOINT Spine1
        {
            OFFSET -0.000000 37.558300 0.000000
            CHANNELS 3 Zrotation Xrotation Yrotation
            JOINT Neck
            {
                OFFSET -0.000000 37.404057 3.400369
                CHANNELS 3 Zrotation Xrotation Yrotation
                JOINT Head
                {
                    OFFSET -0.000000 24.785618 -3.540803
                    CHANNELS 3 Zrotation Xrotation Yrotation
                    End Site
                    {
                        OFFSET -0.000000 35.408028 0.000000
                    }
                }
            }
            JOINT LeftShoulder
            {
                OFFSET 6.992933 33.973492 -0.192664
                CHANNELS 3 Zrotation Xrotation Yrotation
                JOINT LeftArm
                {
                    OFFSET 21.527611 0.000000 0.000000
                    CHANNELS 3 Zrotation Xrotation Yrotation
                    JOINT LeftForeArm
                    {
                        OFFSET 56.353916 0.000000 0.000000
                        CHANNELS 3 Zrotation Xrotation Yrotation
                        JOINT LeftHand
                        {
                            OFFSET 47.774071 0.000000 0.000000
                            CHANNELS 3 Zrotation Xrotation Yrotation
                            End Site
                            {
                                OFFSET 26.556021 0.000000 0.000000
                            }
                        }
                    }
                }
            }
            JOINT RightShoulder
            {
                OFFSET -7.065357 33.973492 -0.192664
                CHANNELS 3 Zrotation Xrotation Yrotation
                JOINT RightArm
                {
                    OFFSET -21.527611 0.000000 0.000000
                    CHANNELS 3 Zrotation Xrotation Yrotation
                    JOINT RightForeArm
                    {
                        OFFSET -56.353916 0.000000 0.000000
                        CHANNELS 3 Zrotation Xrotation Yrotation
                        JOINT RightHand
                        {
                            OFFSET -47.774071 0.000000 0.000000
                            CHANNELS 3 Zrotation Xrotation Yrotation
                            End Site
                            {
                                OFFSET -26.556021 0.000000 0.000000
                            }
                        }
                    }
                }
            }
        }
    }
    JOINT LeftUpLeg
    {
        OFFSET 17.704014 0.000000 0.000000
        CHANNELS 3 Zrotation Xrotation Yrotation
        JOINT LeftLeg
        {
            OFFSET -0.000000 -81.181816 0.000000
            CHANNELS 3 Zrotation Xrotation Yrotation
            JOINT LeftFoot
            {
                OFFSET -0.000000 -62.821102 0.000000
                CHANNELS 3 Zrotation Xrotation Yrotation
                JOINT LeftToeBase
                {
                    OFFSET -0.000000 -11.507608 26.556021
                    CHANNELS 3 Zrotation Xrotation Yrotation
                    End Site
                    {
                        OFFSET -0.000000 0.000000 7.081605
                    }
                }
            }
        }
    }
    JOINT RightUpLeg
    {
        OFFSET -17.704014 0.000000 0.000000
        CHANNELS 3 Zrotation Xrotation Yrotation
        JOINT RightLeg
        {
            OFFSET -0.000000 -81.181816 0.000000
            CHANNELS 3 Zrotation Xrotation Yrotation
            JOINT RightFoot
            {
                OFFSET -0.000000 -62.821102 0.000000
                CHANNELS 3 Zrotation Xrotation Yrotation
                JOINT RightToeBase
                {
                    OFFSET -0.000000 -11.507608 26.556021
                    CHANNELS 3 Zrotation Xrotation Yrotation
                    End Site
                    {
                        OFFSET -0.000000 0.000000 7.081605
                    }
                }
            }
        }
    }
}
MOTION
Frames:    12
Frame Time:    0.008333
-33.978413    151.361267    -33.382065    -0.830870    -0.936279    23.604151    -3.275529    2.043542    6.183476    0.430523    1.934222    2.035539    -4.500475    3.005571    -14.086951    15.951710    -4.260941    -11.295676    1.979387    5.373071    -10.651466    -33.571045    21.123644    -52.302849    -1.877950    -34.643810    -119.268402    -16.304020    -35.231468    -17.250584    2.372938    12.188746    -0.753405    41.842995    12.130355    50.566292    -36.632008    -36.856339    52.012749    15.841848    -16.520300    29.996946    1.922725    -33.300323    -25.561680    -11.701730    25.973152    -24.416334    -10.096066    -0.184862    30.764511    0.000000    0.000000    0.000000    5.464335    7.003238    -21.750904    3.310555    28.576910    -4.562870    -2.033788    -32.259731    -10.603176    0.000000    0.000000    0.000000    
-34.080009    151.309082    -33.383335    -0.845911    -0.908447    23.948704    -3.337111    2.084888    6.263706    0.530446    1.800593    2.060433    -4.681391    3.350827    -14.266103    16.178152    -4.480110    -11.405242    1.918714    5.426287    -10.761875    -33.477905    21.115654    -52.313236    -2.088482    -34.452057    -119.481575    -16.210121    -35.367550    -17.182812    2.317030    12.258527    -0.624067    41.889622    11.956432    50.255795    -36.943752    -36.912449    51.648342    15.787079    -16.573080    30.071949    1.781048    -33.412720    -25.745382    -11.693065    25.987543    -24.457804    -10.132870    -0.111801    30.647358    0.000000    0.000000    0.000000    5.552307    6.931591    -22.041273    3.309574    28.645615    -4.636056    -2.061746    -32.321568    -10.607599    0.000000    0.000000    0.000000    
-34.215302    151.248810    -33.389923    -0.880659    -0.866924    24.276457    -3.387761    2.124421    6.341240    0.564991    1.789222    2.085138    -4.705431    3.331790    -14.446519    16.218727    -4.516124    -11.578546    1.960490    5.347744    -10.663941    -33.394840    21.185711    -52.516903    -2.267516    -34.231724    -119.668205    -16.108074    -35.432777    -17.118784    2.311407    12.219628    -0.626839    41.946346    11.789935    50.041176    -37.107872    -36.928368    51.442989    15.606049    -16.638548    30.057377    1.682785    -33.564285    -25.893757    -11.702238    26.023336    -24.556845    -10.198924    -0.065303    30.580914    0.000000    0.000000    0.000000    5.666052    6.815976    -22.309761    3.276650    28.743528    -4.686875    -2.041543    -32.391666    -10.617567    0.000000    0.000000    0.000000    
-34.313141    151.193604    -33.402622    -0.903682    -0.833629    24.597488    -3.395407    2.184978    6.442766    0.538842    1.753420    2.118939    -4.729518    3.351557    -14.638156    16.300562    -4.576351    -11.754459    2.025599    5.294014    -10.607642    -33.330368    21.214123    -52.712204    -2.457706    -33.969379    -119.861069    -15.983623    -35.483124    -17.013523    2.325122    12.136587    -0.614126    41.955296    11.718596    49.738049    -37.432205    -37.002277    51.119804    15.602548    -16.682112    30.109041    1.547538    -33.691174    -26.048676    -11.690247    26.055281    -24.623604    -10.223875    0.010460    30.486963    0.000000    0.000000    0.000000    5.746192    6.714009    -22.583492    3.254907    28.852327    -4.693405    -2.059062    -32.456253    -10.654328    0.000000    0.000000    0.000000    
-34.399902    151.141403    -33.412857    -0.926723    -0.789780    24.904825    -3.372091    2.219383    6.541539    0.462065    1.744236    2.152942    -4.726947    3.346256    -14.819627    16.358780    -4.611810    -11.929528    2.098552    5.194593    -10.558836    -33.251057    21.309734    -52.883183    -2.611540    -33.794945    -120.038223    -15.931355    -35.555557    -16.951311    2.352756    12.132507    -0.658162    41.954689    11.610397    49.557072    -37.731121    -37.029469    50.789455    15.524489    -16.716631    30.094635    1.406856    -33.822147    -26.211042    -11.674308    26.086578    -24.711800    -10.289952    0.056036    30.445015    0.000000    0.000000    0.000000    5.816566    6.609707    -22.807949    3.263726    28.948877    -4.734957    -2.075906    -32.520321    -10.716629    0.000000    0.000000    0.000000    
-34.489239    151.086975    -33.408581    -0.947009    -0.750337    25.222570    -3.404445    2.237281    6.616877    0.470255    1.726881    2.177621    -4.760053    3.407875    -14.992201    16.455862    -4.679420    -12.082267    2.141238    5.158056    -10.507796    -33.221924    21.287163    -53.032616    -2.775033    -33.464672    -120.197327    -15.739492    -35.513756    -16.833099    2.360570    12.061885    -0.595855    41.976261    11.490018    49.229473    -37.998383    -37.051884    50.476158    15.533913    -16.719656    30.178759    1.265105    -33.939640    -26.386263    -11.663680    26.109344    -24.809507    -10.313490    0.108597    30.391684    0.000000    0.000000    0.000000    5.890433    6.513619    -23.061590    3.258320    29.048378    -4.757373    -2.115790    -32.583477    -10.781363    0.000000    0.000000    0.000000    
-34.574203    151.036789    -33.402897    -0.960684    -0.723970    25.524893    -3.422868    2.381552    6.712765    0.441618    1.517563    2.209309    -4.802891    3.527701    -15.176493    16.570759    -4.724628    -12.248584    2.157492    5.157257    -10.469266    -33.140770    21.362316    -53.154575    -2.930993    -33.223049    -120.370010    -15.662100    -35.531704    -16.763815    2.404783    12.144441    -0.622133    41.942093    11.433026    49.000282    -38.383984    -37.098728    50.080376    15.497232    -16.732628    30.307854    1.120323    -34.033398    -26.570019    -11.637247    26.127365    -24.920385    -10.344483    0.150971    30.362013    0.000000    0.000000    0.000000    5.960639    6.429595    -23.296385    3.249389    29.146894    -4.769988    -2.122682    -32.638706    -10.843274    0.000000    0.000000    0.000000    
-34.654274    150.985580    -33.405350    -0.980555    -0.690817    25.825960    -3.423492    2.377979    6.807366    0.446780    1.538076    2.240745    -4.884608    3.618677    -15.369424    16.706797    -4.814958    -12.407852    2.174261    5.097560    -10.462859    -33.083687    21.350491    -53.284508    -3.138156    -32.941994    -120.533058    -15.524434    -35.598953    -16.643433    2.357652    12.088035    -0.557125    41.969658    11.356305    48.676613    -38.728001    -37.144527    49.711449    15.395407    -16.781887    30.382524    0.968295    -34.140656    -26.777102    -11.609782    26.151646    -25.034885    -10.385848    0.186472    30.343824    0.000000    0.000000    0.000000    6.026658    6.337439    -23.568237    3.248716    29.243580    -4.780280    -2.187143    -32.695896    -10.930919    0.000000    0.000000    0.000000    
-34.722469    150.935913    -33.402325    -0.995681    -0.655971    26.121723    -3.409677    2.376737    6.890610    0.416178    1.555383    2.268942    -4.954151    3.677493    -15.552627    16.833067    -4.859538    -12.565252    2.201916    5.026575    -10.441390    -33.004974    21.396193    -53.407524    -3.279228    -32.717358    -120.671135    -15.522354    -35.588345    -16.716478    2.317356    12.097386    -0.512861    41.936024    11.350454    48.437954    -39.242462    -37.240383    49.163807    15.422546    -16.832972    30.568651    0.801796    -34.240898    -26.990999    -11.567866    26.182224    -25.170660    -10.438993    0.194810    30.353537    0.000000    0.000000    0.000000    6.079756    6.248622    -23.818953    3.240432    29.348423    -4.772492    -2.202766    -32.757915    -10.985608    0.000000    0.000000    0.000000    
-34.796326    150.891800    -33.384380    -1.014699    -0.620745    26.412071    -3.428625    2.354210    6.989970    0.432022    1.590461    2.301842    -5.023341    3.732106    -15.743222    16.962442    -4.906667    -12.729325    2.220261    4.982769    -10.420182    -32.938950    21.402092    -53.558407    -3.431893    -32.459229    -120.814087    -15.446270    -35.597504    -16.574238    2.284962    12.069485    -0.480842    41.984970    11.264024    48.144913    -39.616856    -37.253422    48.765911    15.344108    -16.844326    30.607325    0.645335    -34.334347    -27.203018    -11.530045    26.209787    -25.249580    -10.461413    0.223463    30.308214    0.000000    0.000000    0.000000    6.140367    6.168242    -24.040121    3.248529    29.429625    -4.842046    -2.195025    -32.805504    -10.986106    0.000000    0.000000    0.000000    
-34.856743    150.853378    -33.376125    -1.021688    -0.581698    26.703783    -3.419807    2.371861    7.079784    0.379797    1.554845    2.332503    -5.080011    3.844896    -15.936129    17.118736    -4.968518    -12.892892    2.242591    4.937333    -10.414557    -32.809212    21.491653    -53.705029    -3.536134    -32.333065    -120.930588    -15.388482    -35.652302    -16.506907    2.270888    12.182979    -0.524010    41.990280    11.197065    48.014080    -40.031059    -37.270031    48.284172    15.256716    -16.878511    30.663950    0.467332    -34.421326    -27.456041    -11.496355    26.222733    -25.328497    -10.516142    0.238405    30.297243    0.000000    0.000000    0.000000    6.181325    6.084861    -24.285418    3.251729    29.517040    -4.899586    -2.181653    -32.851421    -11.001632    0.000000    0.000000    0.000000    
-34.921246    150.817398    -33.372070    -1.034491    -0.539237    27.001259    -3.402179    2.422050    7.151597    0.322176    1.464347    2.357118    -5.157110    3.937713    -16.117205    17.271456    -4.980309    -13.048822    2.256103    4.923531    -10.371725    -32.697430    21.552950    -53.854214    -3.648389    -32.151005    -121.055374    -15.364892    -35.658409    -16.478537    2.240292    12.247233    -0.489286    42.023659    11.177346    47.769161    -40.453686    -37.357071    47.818676    15.173733    -16.975328    30.816458    0.290950    -34.517151    -27.707264    -11.461473    26.232616    -25.383066    -10.586393    0.280480    30.257114    0.000000    0.000000    0.000000    6.227285    6.005489    -24.520483    3.265547    29.575758    -5.111704    -2.076954    -32.891327    -10.826590    0.000000    0.000000    0.000000    
